<?xml version="1.0" encoding="iso-8859-1"?>
<!-- Generator: Adobe Illustrator 18.1.1, SVG Export Plug-In . SVG Version: 6.00 Build 0)  -->
<svg version="1.1" id="Capa_1" xmlns="http://www.w3.org/2000/svg" xmlns:xlink="http://www.w3.org/1999/xlink" x="0px" y="0px"
	 viewBox="0 0 349.62 349.62" style="enable-background:new 0 0 349.62 349.62;" xml:space="preserve">
<path d="M271.995,349.62h-48.779c-4.418,0-8-3.582-8-8s3.582-8,8-8h16.39v-15.067h-74.416c-4.418,0-8-3.582-8-8v-103.35
	c0-4.418,3.582-8,8-8H330.02c4.418,0,8,3.582,8,8v103.35c0,4.418-3.582,8-8,8h-74.416v15.067h16.39c4.418,0,8,3.582,8,8
	S276.413,349.62,271.995,349.62z M247.732,302.552h74.288v-87.35H173.189v87.35h74.288
	C247.562,302.55,247.648,302.55,247.732,302.552z M247.604,291.456c-4.418,0-8-3.582-8-8v-2.851c0-4.418,3.582-8,8-8s8,3.582,8,8
	v2.851C255.604,287.874,252.022,291.456,247.604,291.456z M131.895,286.94H19.599c-4.418,0-8-3.582-8-8s3.582-8,8-8h112.296
	c4.418,0,8,3.582,8,8S136.314,286.94,131.895,286.94z M268.884,279.168c-1.358,0-2.734-0.346-3.995-1.074l-2.469-1.427
	c-3.826-2.21-5.135-7.104-2.924-10.929c2.21-3.826,7.103-5.136,10.929-2.925l2.469,1.427c3.826,2.21,5.135,7.104,2.924,10.929
	C274.336,277.735,271.647,279.168,268.884,279.168z M226.326,279.167c-2.765,0-5.455-1.435-6.936-4.002
	c-2.208-3.826-0.897-8.719,2.93-10.928l2.47-1.426c3.824-2.209,8.719-0.897,10.928,2.93c2.208,3.826,0.897,8.719-2.93,10.928
	l-2.47,1.426C229.058,278.822,227.683,279.167,226.326,279.167z M228.781,256.013c-1.356,0-2.73-0.345-3.99-1.071l-2.47-1.425
	c-3.827-2.207-5.14-7.1-2.933-10.927c2.208-3.828,7.1-5.141,10.927-2.933l2.47,1.425c3.827,2.207,5.14,7.1,2.933,10.927
	C234.237,254.578,231.547,256.013,228.781,256.013z M266.429,256.013c-2.765,0-5.454-1.435-6.936-4.001
	c-2.209-3.826-0.898-8.719,2.928-10.928l2.469-1.426c3.828-2.209,8.719-0.898,10.929,2.928c2.209,3.826,0.898,8.719-2.928,10.928
	l-2.469,1.426C269.162,255.667,267.787,256.013,266.429,256.013z M34.09,255.297c-1.001,0-2.02-0.189-3.005-0.589
	c-4.094-1.661-6.066-6.327-4.405-10.421l25.393-62.584c7.877-19.409,16.202-33.162,26.198-43.281
	c13.281-13.444,29.7-20.262,48.799-20.262h33.682c30.332,0,53.124,16.825,69.68,51.437c1.907,3.986,0.221,8.763-3.765,10.669
	c-3.985,1.908-8.763,0.222-10.669-3.765c-10.144-21.206-21.877-33.903-36.769-39.294l-28.856,39.542
	c-1.506,2.063-3.908,3.284-6.462,3.284s-4.956-1.221-6.462-3.284l-28.862-39.551c-17.212,6.228-30.229,22.287-41.688,50.521
	l-25.392,62.583C40.245,253.412,37.25,255.297,34.09,255.297z M126.181,134.166l17.73,24.296l17.73-24.296
	c-0.295-0.004-0.591-0.006-0.888-0.006h-33.683C126.773,134.161,126.476,134.163,126.181,134.166z M247.604,245.149
	c-4.418,0-8-3.582-8-8v-2.852c0-4.418,3.582-8,8-8s8,3.582,8,8v2.852C255.604,241.567,252.022,245.149,247.604,245.149z
	 M143.91,98.887c-27.262,0-49.442-22.181-49.442-49.443c0-22.464,15.061-41.478,35.613-47.476c0.091-0.029,0.184-0.058,0.277-0.084
	c2.699-0.769,5.462-1.304,8.257-1.603c0.014-0.001,0.026-0.002,0.04-0.004c1.411-0.149,2.839-0.24,4.282-0.268
	c0.017,0.001,0.067-0.002,0.104-0.002c0.014-0.001,0.032-0.001,0.048-0.001c0.019,0,0.035-0.001,0.052-0.001
	c0.019,0,0.037-0.001,0.056-0.001c0.016,0.001,0.031,0.001,0.045,0c0.013-0.001,0.025,0,0.037-0.001c0.024,0,0.04-0.005,0.074-0.001
	c0.014,0,0.027,0.001,0.042,0c0.038-0.001,0.076-0.001,0.115-0.001h0.002c0.014,0,0.028,0.001,0.042-0.001
	c0.041,0,0.085-0.001,0.122,0c0.016,0,0.031-0.001,0.046-0.001c0.022,0,0.046-0.001,0.071,0c0.017,0,0.033,0,0.05,0
	c0.025,0.001,0.041,0.001,0.062,0c0.003,0,0.005,0,0.005,0c0.013,0,0.023,0,0.037,0c0.014,0,0.025-0.001,0.039,0
	c0.014,0,0.024,0.001,0.039,0c0.012,0,0.026,0,0.039,0c0.012-0.001,0.027,0,0.041,0c0.013-0.001,0.03,0.001,0.043,0.001h0.004
	c25.43,0.121,46.456,19.223,48.959,44.528c0.003,0.024,0.005,0.05,0.007,0.075c0.155,1.592,0.235,3.206,0.235,4.839
	C193.353,76.706,171.173,98.887,143.91,98.887z M126.74,20.754c-9.74,5.852-16.271,16.522-16.271,28.689
	c0,18.44,15.002,33.443,33.442,33.443c16.619,0,30.446-12.185,33.015-28.091c-1.044,0.065-2.091,0.099-3.141,0.099
	C151.87,54.895,133.186,40.796,126.74,20.754z M142.042,16.052c4.43,13.424,17.006,22.843,31.742,22.843
	c0.617,0,1.233-0.017,1.847-0.05c-4.415-13.18-16.83-22.726-31.449-22.844c-0.016,0-0.032,0-0.047,0c-0.016,0-0.033,0-0.048,0
	c-0.016-0.001-0.032,0-0.048-0.001c-0.016,0-0.036,0-0.05,0c-0.022,0.001-0.041,0.001-0.063,0c-0.023,0-0.044,0-0.068,0
	c-0.002,0-0.004,0-0.006,0C143.246,16.001,142.642,16.019,142.042,16.052z"/>
<g>
</g>
<g>
</g>
<g>
</g>
<g>
</g>
<g>
</g>
<g>
</g>
<g>
</g>
<g>
</g>
<g>
</g>
<g>
</g>
<g>
</g>
<g>
</g>
<g>
</g>
<g>
</g>
<g>
</g>
</svg>
