<?xml version="1.0" encoding="utf-8"?>
<!-- Generator: Adobe Illustrator 26.1.0, SVG Export Plug-In . SVG Version: 6.00 Build 0)  -->
<svg version="1.1" id="Calque_1" xmlns="http://www.w3.org/2000/svg" xmlns:xlink="http://www.w3.org/1999/xlink" x="0px" y="0px"
	 viewBox="0 0 2500 1491.8" style="enable-background:new 0 0 2500 1491.8;" xml:space="preserve">
<style type="text/css">
	.st0{fill-rule:evenodd;clip-rule:evenodd;fill:#364548;}
	.st1{fill-rule:evenodd;clip-rule:evenodd;fill:#22A0C8;}
	.st2{fill-rule:evenodd;clip-rule:evenodd;fill:#37B1D9;}
	.st3{fill-rule:evenodd;clip-rule:evenodd;fill:#1B81A5;}
	.st4{fill-rule:evenodd;clip-rule:evenodd;fill:#1D91B4;}
	.st5{fill-rule:evenodd;clip-rule:evenodd;fill:#23A3C2;}
	.st6{fill-rule:evenodd;clip-rule:evenodd;fill:#34BBDE;}
	.st7{fill-rule:evenodd;clip-rule:evenodd;fill:#D3ECEC;}
	.st8{fill-rule:evenodd;clip-rule:evenodd;fill:#BDD9D7;}
</style>
<g>
	<path class="st0" d="M1440.3,446.8h223.3v228.3h112.9c52.1,0,105.8-9.3,155.1-26c24.3-8.2,51.5-19.7,75.4-34.1
		c-31.5-41.2-47.6-93.1-52.3-144.3c-6.4-69.7,7.6-160.4,54.8-214.9l23.5-27.1l28,22.5c70.4,56.6,129.6,135.6,140.1,225.8
		c84.8-24.9,184.4-19,259.1,24.1l30.7,17.7l-16.1,31.5c-63.2,123.4-195.4,161.6-324.6,154.8c-193.3,481.5-614.2,709.5-1124.6,709.5
		c-263.7,0-505.6-98.6-643.3-332.5l-2.3-3.8l-20.1-40.8c-46.6-103-62-215.8-51.5-328.5l3.2-33.8h191V446.8h223.3V223.5h446.6V0.2
		h268v446.6"/>
	<path class="st1" d="M2163.8,531.2c15-116.4-72.1-207.8-126.1-251.2c-62.2,72-71.9,260.5,25.7,339.9
		c-54.5,48.4-169.3,92.3-286.9,92.3H345.4C334,835,355.5,948,404.7,1044.7l16.3,29.8c10.3,17.5,21.6,34.4,33.7,50.6
		c58.8,3.8,113.1,5.1,162.7,4l0,0c97.5-2.1,177.1-13.7,237.4-34.6c9.1-2.8,18.7,2.2,21.5,11.3c2.7,8.7-1.8,17.9-10.3,21.2
		c-8,2.8-16.4,5.4-25,7.9l0,0c-47.5,13.6-98.4,22.7-164.1,26.7c3.9,0.1-4.1,0.6-4.1,0.6c-2.2,0.1-5,0.5-7.3,0.6
		c-25.9,1.5-53.8,1.8-82.3,1.8c-31.2,0-61.9-0.6-96.3-2.3l-0.9,0.6c119.2,134,305.7,214.4,539.4,214.4
		c494.6,0,914.1-219.3,1099.9-711.5c131.8,13.5,258.5-20.1,316.1-132.6C2349.8,480.2,2231.7,497.1,2163.8,531.2"/>
	<path class="st2" d="M2163.8,531.2c15-116.4-72.1-207.8-126.1-251.2c-62.2,72-71.9,260.5,25.7,339.9
		c-54.5,48.4-169.3,92.3-286.9,92.3H430.2c-5.8,187.9,63.9,330.6,187.3,416.9l0,0c97.5-2.1,177.1-13.7,237.4-34.6
		c9.1-2.8,18.7,2.2,21.5,11.3c2.7,8.7-1.8,17.9-10.3,21.2c-8,2.8-16.4,5.4-25,7.9l0,0c-47.5,13.6-102.8,23.9-168.5,27.9l-1.6-1.5
		c168.3,86.3,412.4,86,692.2-21.5C1677,1019.3,1969,789.7,2172.7,527C2169.7,528.4,2166.7,529.8,2163.8,531.2"/>
	<path class="st3" d="M348.1,861.4c8.9,65.7,28.1,127.3,56.6,183.4l16.3,29.8c10.3,17.5,21.6,34.4,33.7,50.6
		c58.8,3.8,113.1,5.1,162.7,4c97.5-2.1,177.1-13.7,237.4-34.6c9.1-2.8,18.7,2.2,21.5,11.3c2.7,8.7-1.8,17.9-10.3,21.2
		c-8,2.8-16.4,5.4-25,7.9l0,0c-47.5,13.6-102.5,23.3-168.2,27.3c-2.3,0.1-6.2,0.2-8.5,0.3c-25.8,1.4-53.5,2.3-82,2.3
		c-31.2,0-63.1-0.6-97.5-2.3c119.2,134,306.8,214.7,540.5,214.7c423.4,0,791.8-160.7,1005.7-515.8H348.1"/>
	<path class="st4" d="M443,861.4c25.3,115.4,86.1,206,174.5,267.8c97.5-2.1,177.1-13.7,237.4-34.6c9.1-2.8,18.7,2.2,21.5,11.3
		c2.7,8.7-1.8,17.9-10.3,21.2c-8,2.8-16.4,5.4-25,7.9l0,0c-47.5,13.6-103.7,23.3-169.4,27.3c168.3,86.3,411.7,85.1,691.5-22.4
		c169.3-65,332.2-161.9,478.4-278.5H443"/>
	<path class="st5" d="M539.6,484h193.5v193.5H539.6V484z M555.8,500.1H571v161.3h-15.3L555.8,500.1L555.8,500.1z M584.5,500.1h15.9
		v161.3h-15.9V500.1L584.5,500.1z M613.8,500.1h15.9v161.3h-15.9V500.1z M643.1,500.1H659v161.3h-15.9V500.1z M672.5,500.1h15.9
		v161.3h-15.9V500.1L672.5,500.1z M701.8,500.1h15.3v161.3h-15.3V500.1z M762.9,260.7h193.5v193.5H762.9V260.7L762.9,260.7z
		 M779.1,276.8h15.3v161.3h-15.3V276.8z M807.8,276.8h15.9v161.3h-15.9V276.8L807.8,276.8z M837.1,276.8H853v161.3h-15.9V276.8z
		 M866.4,276.8h15.9v161.3h-15.9V276.8z M895.8,276.8h15.9v161.3h-15.9V276.8z M925.1,276.8h15.3v161.3h-15.3V276.8z"/>
	<path class="st6" d="M762.9,484h193.5v193.5H762.9V484L762.9,484z M779.1,500.1h15.3v161.3h-15.3V500.1z M807.8,500.1h15.9v161.3
		h-15.9V500.1L807.8,500.1z M837.1,500.1H853v161.3h-15.9V500.1z M866.4,500.1h15.9v161.3h-15.9V500.1z M895.8,500.1h15.9v161.3
		h-15.9V500.1z M925.1,500.1h15.3v161.3h-15.3V500.1z"/>
	<path class="st5" d="M986.3,484h193.5v193.5H986.3V484z M1002.4,500.1h15.3v161.3h-15.3V500.1z M1031.1,500.1h15.9v161.3h-15.9
		V500.1z M1060.4,500.1h15.9v161.3h-15.9V500.1z M1089.7,500.1h15.9v161.3h-15.9V500.1z M1119.1,500.1h15.9v161.3h-15.9V500.1z
		 M1148.4,500.1h15.3v161.3h-15.3V500.1z"/>
	<path class="st6" d="M986.3,260.7h193.5v193.5H986.3V260.7z M1002.4,276.8h15.3v161.3h-15.3V276.8z M1031.1,276.8h15.9v161.3h-15.9
		V276.8z M1060.4,276.8h15.9v161.3h-15.9V276.8z M1089.7,276.8h15.9v161.3h-15.9V276.8z M1119.1,276.8h15.9v161.3h-15.9V276.8z
		 M1148.4,276.8h15.3v161.3h-15.3V276.8z M1209.6,484h193.5v193.5h-193.5V484z M1225.7,500.1h15.3v161.3h-15.3V500.1z M1254.4,500.1
		h15.9v161.3h-15.9V500.1z M1283.7,500.1h15.9v161.3h-15.9V500.1z M1313,500.1h15.9v161.3H1313V500.1z M1342.4,500.1h15.9v161.3
		h-15.9V500.1z M1371.7,500.1h15.3v161.3h-15.3V500.1z"/>
	<path class="st5" d="M1209.6,260.7h193.5v193.5h-193.5V260.7z M1225.7,276.8h15.3v161.3h-15.3V276.8z M1254.4,276.8h15.9v161.3
		h-15.9V276.8z M1283.7,276.8h15.9v161.3h-15.9V276.8z M1313,276.8h15.9v161.3H1313V276.8z M1342.4,276.8h15.9v161.3h-15.9V276.8z
		 M1371.7,276.8h15.3v161.3h-15.3V276.8z"/>
	<path class="st6" d="M1209.6,37.4h193.5V231h-193.5V37.4z M1225.7,53.5h15.3v161.3h-15.3V53.5L1225.7,53.5z M1254.4,53.5h15.9
		v161.3h-15.9V53.5L1254.4,53.5z M1283.7,53.5h15.9v161.3h-15.9V53.5L1283.7,53.5z M1313,53.5h15.9v161.3H1313V53.5L1313,53.5z
		 M1342.4,53.5h15.9v161.3h-15.9V53.5L1342.4,53.5z M1371.7,53.5h15.3v161.3h-15.3V53.5L1371.7,53.5z"/>
	<path class="st5" d="M1432.9,484h193.5v193.5h-193.5V484z M1449,500.1h15.3v161.3H1449V500.1L1449,500.1z M1477.7,500.1h15.9v161.3
		h-15.9V500.1L1477.7,500.1z M1507,500.1h15.9v161.3H1507V500.1z M1536.3,500.1h15.9v161.3h-15.9V500.1z M1565.7,500.1h15.9v161.3
		h-15.9V500.1z M1595,500.1h15.3v161.3H1595V500.1z"/>
	<path class="st7" d="M944.4,991.3c29.5-0.4,53.7,23.2,54.1,52.7c0.4,29.5-23.2,53.7-52.7,54.1c-0.5,0-1,0-1.4,0
		c-29.5-0.4-53.1-24.6-52.7-54.1C892.1,1015.1,915.4,991.7,944.4,991.3"/>
	<path class="st0" d="M944.4,1006.5c4.9,0,9.5,0.9,13.8,2.6c-7.5,4.3-10,13.9-5.7,21.3c2.8,4.8,7.9,7.8,13.5,7.8
		c5.9,0,11-3.3,13.7-8.1c8.1,19.5-1.2,41.9-20.7,50s-41.9-1.2-50-20.7s1.2-41.9,20.7-50C934.4,1007.5,939.3,1006.5,944.4,1006.5
		 M0,880.7h2483.7c-54.1-13.7-171.1-32.2-151.8-103.1c-98.3,113.8-335.5,79.8-395.3,23.7c-66.6,96.7-454.6,59.9-481.7-15.4
		c-83.6,98.1-342.5,98.1-426,0c-27.1,75.3-415.1,112.1-481.7,15.4c-59.8,56.1-297,90.1-395.3-23.7C171.1,848.4,54.1,867,0,880.7"/>
	<path class="st8" d="M1086.3,1376.1c-132.2-62.7-204.8-148-245.2-241.2c-49.1,14-108.2,23-176.8,26.8c-25.8,1.4-53,2.2-81.5,2.2
		c-32.9,0-67.5-1-103.9-2.9c121.3,121.2,270.4,214.5,546.6,216.2C1045.9,1377.2,1066.2,1376.8,1086.3,1376.1"/>
	<path class="st7" d="M890.2,1220.8c-18.3-24.8-36-56-49.1-85.9c-49.1,14-108.2,23-176.8,26.9C711.5,1187.3,778.9,1211,890.2,1220.8
		"/>
</g>
</svg>
