<?xml version="1.0" encoding="utf-8"?>
<!-- Generator: Adobe Illustrator 26.1.0, SVG Export Plug-In . SVG Version: 6.00 Build 0)  -->
<svg version="1.1" id="Calque_1" xmlns="http://www.w3.org/2000/svg" xmlns:xlink="http://www.w3.org/1999/xlink" x="0px" y="0px"
	 viewBox="0 0 1535 2129.9" style="enable-background:new 0 0 1535 2129.9;" xml:space="preserve">
<style type="text/css">
	.st0{fill:#D33833;}
	.st1{fill:#EF3D3A;}
	.st2{fill:#231F20;}
	.st3{fill:#F0D6B7;}
	.st4{fill:#335061;}
	.st5{fill:#6D6B6D;}
	.st6{fill:#DCD9D8;}
	.st7{fill:#F7E4CD;}
	.st8{fill:#49728B;}
	.st9{fill:#FFFFFF;}
	.st10{stroke:#D33833;stroke-width:11.9904;stroke-miterlimit:23.9808;}
	.st11{fill:#81B0C4;}
	.st12{fill:#1D1919;}
</style>
<path class="st0" d="M1503.2,1014.9c0,416.4-330.2,754.3-737.6,754.3S28,1431.3,28,1014.9c0-416.4,330.2-754.3,737.6-754.3
	C1173.1,260.6,1503.2,598.4,1503.2,1014.9"/>
<path class="st1" d="M58.3,1201.6c0,0-53.5-786.4,671.6-809l-50.6-84.5L286.1,440.2L173.7,569.3l-98.2,188L19.6,976.2l16.7,146.3"/>
<path class="st2" d="M260.6,500.3C131.5,632.9,51.2,815.6,51.2,1017.8s80.3,384.9,209.4,517.5c129.7,132.7,307.6,214.2,505,214.2
	c197.5,0,375.4-81.5,505-214.1c129.1-132.7,209.4-315.3,209.4-517.5c0-202.3-80.3-384.9-209.4-517.5
	c-129.7-132.1-307.5-214.1-505-214.1C568.7,286.1,390.2,367.6,260.6,500.3L260.6,500.3z M227.8,1566.9
	C90.4,1426.5,5.4,1232,5.4,1017.8s85.1-408.7,222.5-549.7c137.4-140.4,327.8-227.8,537.8-227.8c210,0,400.3,87.4,537.8,227.8
	c137.4,140.4,222.5,334.9,222.5,549.7c0,214.1-85.1,408.7-222.5,549.1c-137.4,141-327.8,227.8-537.8,227.8
	C555.6,1794.7,365.3,1707.9,227.8,1566.9L227.8,1566.9z"/>
<path class="st3" d="M1076.1,1019l-112.4,16.7L812,1052.9l-98.2,2.4l-95.8-3l-73.2-22.6l-64.8-70.2l-50.6-143.4l-11.3-30.9
	L351,762.6l-39.3-64.8l-28-92.8l30.9-81.5l73.2-25.6l58.9,28l28,61.9l33.9-5.4l11.3-14.3l-11.3-64.8l-3-81.5l16.7-112.4l-0.6-64.2
	l51.2-82.1l89.8-64.8l157.1-67.2L994,56.5L1145.7,166l70.2,112.4l45.2,81.5l11.3,202.3l-33.9,174.3l-61.9,154.7l-58.3,82.7"/>
<path class="st4" d="M980.9,1505l-401.5,16.7v67.2l33.9,236.2l-16.7,19.6l-280.8-95.8l-19.6-33.9l-28-317.7l-66-190.4l-14.3-45.2
	l224.9-154.7l70.2-28l61.9,76.1l53.5,47.6l61.9,19.6l28,8.3l33.9,146.3l25.6,30.9l64.8-22.6l-45.2,87.4l243.9,115.4L980.9,1505"/>
<path class="st5" d="M314.7,524.7l73.2-25.6l58.9,28l28,61.9l33.9-5.4l8.3-33.9l-16.7-64.8l16.7-154.7l-14.3-84.5l50.6-58.9
	l109.5-86.9l-30.9-42.2l-154.7,76.1l-64.8,50.6L376,262.9L320,339.1l-16.7,89.8L314.7,524.7"/>
<path class="st6" d="M430.1,260.6c0,0,42.2-104.1,210.6-154.7C809,55.3,649,69.6,649,69.6l-182.6,70.2L396.2,210l-30.9,55.9
	L430.1,260.6 M345.6,505c0,0-58.9-196.9,166-224.9l-8.3-33.9l-154.7,36.3l-45.2,146.3l11.3,95.8L345.6,505"/>
<path class="st7" d="M435.4,766.2l36.9-35.7c0,0,16.7,1.8,19.6,21.4c3,19.6,11.3,196.9,132.1,292.1c11.3,8.9-89.8-14.3-89.8-14.3
	l-89.8-140.4 M952.4,712.7c0,0,6.5-85.1,29.7-78.5c23.2,6.5,23.2,29.7,23.2,29.7S949.4,699.6,952.4,712.7 M1185.6,400.9
	c0,0-46.4,9.5-50.6,50.6c-4.2,41,50.6,8.3,58.9,5.4 M845.9,403.9c0,0-61.9,8.3-61.9,47.6c0,39.3,70.2,36.3,89.8,19.6 M464,586.5
	c0,0-106.5-64.8-117.8-3c-11.3,61.9-36.3,106.5,16.7,171.3l-36.3-11.3l-33.9-86.9l-11.3-84.5l64.8-67.2l73.2,5.4l42.2,33.9
	L464,586.5 M514.6,409.3c0,0,47.6-247.5,289.1-295.1c198.7-39.3,303.4,8.3,342.6,53.5c0,0-177.3-210.6-345.6-146.3
	C632.4,86.3,508.6,204,511.6,279.6C516.3,409.3,514.6,409.3,514.6,409.3 M1165.9,195.7c0,0-81.5-3-84.5,70.2c0,0,0,11.3,5.4,22.6
	c0,0,64.8-73.2,104.1-33.9"/>
<path class="st7" d="M809.6,296.2c0,0-14.3-111.8-109.5-47c-61.9,42.2-55.9,101.1-45.2,112.4c11.3,11.3,8.3,33.9,16.7,18.4
	c8.3-15.5,5.9-66,36.9-80.3C738.8,285.5,790,270.1,809.6,296.2"/>
<path class="st8" d="M545.5,1055.3l-264.1,117.8c0,0,109.5,435.4,53.5,570.5l-39.3-14.3l-3-166l-73.2-314.1l-30.9-86.9L464,976.8
	L545.5,1055.3 M572.3,1296.2l37.5,45.8v168.3h-44.6c0,0-5.4-117.8-5.4-132.1c0-14.3,5.4-64.8,5.4-64.8 M573.5,1536l-126.7,5.4
	l36.3,25.6l89.8,14.3"/>
<path class="st4" d="M1005.9,1508l104.1-3l25.6,258.2l-106.5,14.3L1005.9,1508"/>
<path class="st4" d="M1033.9,1508l157-8.3c0,0,64.8-163,64.8-171.3c0-8.3,55.9-236.2,55.9-236.2L1185,960.1l-25.6-22.6l-67.2,67.2
	v261.2L1033.9,1508"/>
<path class="st8" d="M1104.1,1488.4l-98.2,19.6l14.3,78.5c36.3,16.7,98.2-28,98.2-28 M1107.1,996.4l196.9,146.3l5.4-67.2
	l-148.7-137.4L1107.1,996.4"/>
<path class="st9" d="M671,2061.2l-58.3-236.2l-29.1-174.3l-4.8-129.1l263.5-14.3h163.6l-14.9,295.1l25.6,227.8l-3,42.2l-213.6,16.7
	L671,2061.2"/>
<path class="st6" d="M969.6,1505c0,0-14.3,292.1,28,500.3c0,0-84.5,53.5-207.6,67.2l236.2-8.3l28-16.7l-33.9-460.4l-8.9-98.8"/>
<path class="st9" d="M1139.8,1741.2l109.5-30.9l207.6-11.3l30.9-95.8l-55.9-166l-64.8-8.3l-89.8,28l-85.7,42.2l-45.8-8.3L1110,1505"
	/>
<path class="st6" d="M1138,1684.7c0,0,73.2-33.9,84.5-30.9l-30.9-154.7l36.3-14.3c0,0,25.6,146.3,25.6,163c0,0,157,8.3,171.3,8.3
	c0,0,33.9-64.8,25.6-132.1l30.9,89.8l3,50.6l-45.2,67.2l-50.6,11.3l-84.5-3l-28-36.3l-98.2,14.3l-30.9,11.3"/>
<path class="st9" d="M1027.3,1485.4l-61.9-157l-64.8-92.8c0,0,14.3-39.3,33.9-39.3h64.8l61.9,22.6l-5.4,104.1L1027.3,1485.4"/>
<path class="st6" d="M1039.8,1431.9c0,0-78.5-151.7-78.5-174.3c0,0,14.3-33.9,33.9-25.6c19.6,8.3,61.9,30.9,61.9,30.9v-53.5
	l-95.8-19.6l-64.8,8.3l109.5,259.4l22.6,3"/>
<path class="st9" d="M696,1061.3l-77.9-8.3l-73.2-22.6v25.6l35.7,39.3l112.4,50.6"/>
<path class="st6" d="M570.5,1069.6c0,0,86.8,36.3,115.4,28l3,33.9l-78.5-16.7l-47.6-33.9L570.5,1069.6"/>
<path class="st0" d="M1139.8,1205.8c-47.6-1.2-91-7.1-128.5-17.8c2.4-15.5-2.4-30.3,1.8-41.6c10.7-7.7,28-7.7,44-9.5
	c-13.7-6.5-33.3-9.5-48.8-5.4c-0.6-10.7-5.4-17.3-8.3-25.6c26.8-9.5,89.8-72,125.5-51.8c17.3,10.1,24.4,66,25.6,94
	C1152.3,1170.7,1148.7,1193.3,1139.8,1205.8"/>
<path class="st10" d="M1139.8,1205.8c-47.6-1.2-91-7.1-128.5-17.8c2.4-15.5-2.4-30.3,1.8-41.6c10.7-7.7,28-7.7,44-9.5
	c-13.7-6.5-33.3-9.5-48.8-5.4c-0.6-10.7-5.4-17.3-8.3-25.6c26.8-9.5,89.8-72,125.5-51.8c17.3,10.1,24.4,66,25.6,94
	C1152.3,1170.7,1148.7,1193.3,1139.8,1205.8L1139.8,1205.8z"/>
<path class="st0" d="M911.9,1127.9c0,3.6,0,7.1-0.6,10.7c-14.9,9.5-38.7,9.5-55.3,17.8c23.8,1.2,42.8,7.1,59.5,14.9
	c-0.6,8.9-0.6,18.4-1.2,27.4c-27.4,18.4-52.4,46.4-84.5,64.2c-15.5,8.3-68.4,29.7-84.5,25.6c-8.9-2.4-10.1-13.7-13.7-24.4
	c-7.7-22.6-25.6-59.5-27.4-94c-1.8-43.4-6.5-116.6,40.4-107.7c38.1,7.1,82.1,24.4,111.2,40.5
	C874.5,1113.6,884.6,1125.5,911.9,1127.9"/>
<path class="st10" d="M911.9,1127.9c0,3.6,0,7.1-0.6,10.7c-14.9,9.5-38.7,9.5-55.3,17.8c23.8,1.2,42.8,7.1,59.5,14.9
	c-0.6,8.9-0.6,18.4-1.2,27.4c-27.4,18.4-52.4,46.4-84.5,64.2c-15.5,8.3-68.4,29.7-84.5,25.6c-8.9-2.4-10.1-13.7-13.7-24.4
	c-7.7-22.6-25.6-59.5-27.4-94c-1.8-43.4-6.5-116.6,40.4-107.7c38.1,7.1,82.1,24.4,111.2,40.5
	C874.5,1113.6,884.6,1125.5,911.9,1127.9L911.9,1127.9z"/>
<path class="st0" d="M938.7,1179.6c-4.2-23.8-8.9-30.3-7.1-51.2C995.2,1086.2,1006.5,1201,938.7,1179.6"/>
<path class="st10" d="M938.7,1179.6c-4.2-23.8-8.9-30.3-7.1-51.2C995.2,1086.2,1006.5,1201,938.7,1179.6L938.7,1179.6z"/>
<path class="st1" d="M1030.3,1198.7c0,0-19.6-28-5.4-36.3c14.3-8.3,28,0,36.3-14.3c8.3-14.3,0-22.6,3-39.3
	c3-16.7,16.7-19.6,30.9-22.6c14.3-3,53.5-8.3,58.9,5.4l-16.7-50.6l-33.9-11.3L997,1091.6l-5.4,30.9v61.9 M735.3,1291.5
	c-3.6-44-7.1-87.4-10.7-131.5c-5.9-65.4,15.5-54.1,72.6-54.1c8.9,0,53.5,10.1,56.5,16.7c15.5,31.5-25.6,24.4,17.8,48.2
	c36.3,19.6,101.1-11.9,86.3-56.5c-8.3-10.1-42.8-3-55.3-9.5l-66-33.9c-28-14.3-92.2-35.7-121.9-15.5
	c-75.6,51.2,4.8,179.7,31.5,233.2"/>
<path class="st2" d="M809.6,296.2c-76.7-17.8-114.8,32.1-138,83.9c-20.8-4.8-12.5-33.3-7.1-47.6c13.7-37.5,69-88,114.2-80.9
	C797.7,254,823.9,271.9,809.6,296.2 M1182.6,383.1h3.6c17.3,35.7,32.1,73.8,54.1,105.9c-14.9,34.5-110.6,64.2-109.5,3.6
	c20.8-8.9,56.5-1.8,75-13.7C1195.1,449.7,1180.2,424.7,1182.6,383.1 M848.3,384.3c16.7,30.3,22,61.9,45.2,84.5
	c10.7,10.1,30.9,22.6,20.8,51.2c-2.4,6.5-19.6,21.4-29.7,24.4c-36.3,10.7-121.4,2.4-92.8-43.4c30.3,1.2,70.8,19.6,93.4-2.4
	C867.9,471.1,837,416.4,848.3,384.3 M1168.9,690c-54.7,35.1-116,73.8-206.4,64.8c-19-16.7-26.8-54.1-7.7-78.5
	c9.5,16.7,3.6,47.6,30.9,52.3c51.2,8.9,110.6-31.5,147.5-45.2c22.6-38.7-1.8-52.4-22.6-77.3c-42.2-50.6-98.2-113.6-96.4-189.2
	c17.3-12.5,18.4,19,20.8,24.4c22,51.2,77.3,117.2,117.2,161.2c10.1,10.7,26.2,21.4,28,28.6C1185.6,651.4,1166.5,676.4,1168.9,690
	 M444.4,653.2c-17.2-10.1-21.4-52.9-41.6-54.1c-29.1-1.8-23.8,55.9-23.8,89.8c-19.6-17.8-23.2-73.8-8.9-102.3
	c-16.7-8.3-23.8,8.9-33.3,14.9C349.2,515.2,463.4,561.6,444.4,653.2 M1203.4,726.3c-25.6,48.8-61.9,102.3-136.8,104.1
	c-1.8-15.5-3-39.9,0-49.4C1124.3,775.1,1160,746,1203.4,726.3 M844.1,757.9c47.6,25,135.6,28,201.1,26.2c3.6,14.3,3.6,32.1,3.6,49.4
	C964.9,837,866.1,816.2,844.1,757.9 M835.2,804.3c33.3,83.3,146.9,73.8,242.7,71.4c-4.2,10.7-13.1,23.8-25,28
	c-30.9,12.5-115.4,22-158.2-0.6c-26.8-14.3-44.6-47-59.5-66C828.7,828.1,793,804.9,835.2,804.3"/>
<path class="st11" d="M1164.8,1262.9c-38.7,66.6-76.1,135-121.9,193.3c19-56.5,27.4-151.7,30.3-224.3
	C1113.6,1212.9,1148.1,1236.1,1164.8,1262.9"/>
<path class="st2" d="M1373.6,1502.1c-43.4,8.9-73.8,51.2-116.6,48.2C1280.8,1517.5,1321.2,1503.2,1373.6,1502.1 M1392.6,1569.9
	c-35.7,3.6-77.3,9.5-113,6.5C1296.8,1550.2,1362.3,1559.8,1392.6,1569.9 M1405.1,1628.8c-39.9,0.6-89.2,0-127.3-3
	C1300.4,1601.4,1379.5,1616.9,1405.1,1628.8"/>
<path class="st6" d="M1089.8,1789.4c5.9,50,25.6,100.5,23.2,155.3c-22,7.1-34.5,13.7-64.3,13.7c-1.8-46.4-8.3-117.8-6.5-162.4
	C1056.5,1797.1,1077.9,1785.8,1089.8,1789.4"/>
<path class="st3" d="M1025.6,1051.7c-20.2,13.1-36.9,29.1-56.5,43.4c-42.8,2.4-66-3-97-27.4c0.6-1.8,3.6-1.2,3.6-3.6
	C921.5,1084.5,979.8,1055.9,1025.6,1051.7"/>
<path class="st11" d="M786.4,1362.9c12.5-54.1,61.9-82.7,106.5-112.4c45.8,58.3,73.8,133.2,104.7,205.8
	C924.4,1434.2,850.1,1399.1,786.4,1362.9"/>
<path class="st2" d="M1042.2,1796.5c-1.8,44.6,4.2,115.4,6.5,162.4c29.7,0,42.2-6.5,64.3-13.7c2.4-54.7-17.3-105.3-23.2-155.3
	C1077.9,1785.8,1056.5,1797.1,1042.2,1796.5z M583,1544.3c19.6,179.1,47.6,329,99.3,487.8c114.8,35.1,252.8,38.1,354.6,6.5
	c-18.4-89.2-10.7-198.1-21.4-293.9c-8.3-72-4.2-144-15.5-217.1C876.8,1502.1,703.1,1521.7,583,1544.3L583,1544.3z M1029.1,1528.8
	c-1.2,76.7,3.6,152.9,9.5,229.6c29.7-4.2,49.4-7.1,76.7-13.7c-8.9-73.8-7.7-157.6-26.2-223.1
	C1068.4,1522.3,1049.9,1521.7,1029.1,1528.8L1029.1,1528.8z M1178.4,1516.3c-14.3-3-30.3,0-43.4,0c6.5,62.5,21.4,131.5,26.8,197.5
	c20.8,0.6,32.1-9.5,49.4-12.5C1212.4,1643.6,1206.4,1563.9,1178.4,1516.3L1178.4,1516.3z M1405.1,1723.3
	c44-10.7,71.4-64.2,58.9-119.6c-8.3-36.9-22.6-107.1-38.7-130.9c-11.3-17.2-42.8-40.4-68.4-24.4c-41,26.2-113,33.9-142.8,65.4
	c14.9,50,19.6,117.8,25.6,180.8c51.2,3,113.6-14.3,156.5,4.2c-29.7,9.5-67.8,9.5-93.4,23.8C1324.2,1732.9,1373,1731.1,1405.1,1723.3
	L1405.1,1723.3z M997,1456.2c-30.9-72.6-58.9-147.5-104.7-205.8c-44.6,29.7-93.4,58.3-106.5,112.4
	C850.1,1399.1,924.4,1434.2,997,1456.2L997,1456.2z M1073.1,1232c-3,72.6-11.3,167.8-30.3,224.3c45.8-58.9,83.3-126.7,121.9-193.3
	C1148.1,1236.1,1113.6,1212.9,1073.1,1232L1073.1,1232z M986.9,1201.6c-17.3-1.8-32.1,20.2-54.7,10.7c-5.4,5.9-10.1,11.9-15.5,17.8
	c50,60.7,73.2,146.3,111.8,217.1c20.8-68.4,18.4-142.8,23.2-217.1C1023.2,1231.4,1007.1,1203.4,986.9,1201.6L986.9,1201.6z
	 M931.6,1128.5c-1.8,20.8,3,27.4,7.1,51.2C1006.5,1201,995.2,1086.2,931.6,1128.5z M856,1103.5c-29.1-16.1-73.2-33.3-111.2-40.4
	c-47-8.9-42.2,64.2-40.4,107.7c1.8,34.5,19.6,70.8,27.4,94c3.6,10.7,4.8,22,13.7,24.4c16.1,3.6,69.6-17.2,84.5-25.6
	c32.1-17.2,57.1-45.2,84.5-64.2c0.6-8.9,0.6-18.4,1.2-27.4c-16.7-8.3-35.1-13.7-59.5-14.9c16.1-8.3,40.5-8.3,55.3-17.8
	c0-3.6,0-7.1,0.6-10.7C884.6,1125.5,874.5,1113.6,856,1103.5L856,1103.5z M576.4,1052.9c-24.4,25,68.4,58.3,97.6,60.1
	c0-15.5,8.9-30.3,7.1-41.6C646,1065.4,600.2,1069.6,576.4,1052.9L576.4,1052.9z M876.3,1064.2c0,2.4-3,1.8-3.6,3.6
	c31.5,24.4,54.7,29.7,97,27.4c19-13.7,36.3-30.3,56.5-43.4C979.8,1055.9,921.5,1084.5,876.3,1064.2L876.3,1064.2z M1151.1,1147.5
	c-1.2-27.4-8.3-83.9-25.6-94c-35.7-20.8-98.7,42.2-125.5,51.8c3,8.3,7.7,14.9,8.3,25.6c16.1-4.2,35.1-1.2,48.8,5.4
	c-16.1,1.8-33.3,1.8-44,9.5c-3.6,11.3,1.2,26.2-1.8,41.6c37.5,10.7,80.9,16.1,128.5,17.8C1148.7,1193.3,1152.3,1170.7,1151.1,1147.5
	L1151.1,1147.5z M535.4,1076.7c-7.7-5.4-59.5-72.6-66.6-69.6c-93.4,36.9-180.8,100.5-258.8,161.2c74.4,160,104.7,355.7,110.1,544.3
	c85.1,39.9,160,97.6,276,103.5c-13.7-94.6-25.6-179.7-33.3-268.9c-29.1-12.5-70.8,0.6-98.2-3.6c0-32.7,41.6-14.3,45.2-36.3
	c2.4-16.7-23.2-17.8-14.9-44c21.4,7.7,32.7,25,55.3,31.5c20.8-45.2,0-125.5,3-163.6c0.6-7.1,3.6-39.3,19.6-33.9
	c14.3,4.8-0.6,86.3,0.6,121.9c1.2,33.3-4.2,64.8,9.5,85.7c111.8-15.5,225.5-25,346.8-28.6c-26.8-11.3-58.3-22-92.8-41.6
	c-19-10.7-77.9-32.7-83.3-50.6c-8.9-28.6,22.6-43.4,28-67.8c-56.5,30.9-67.2-29.7-80.9-72c-11.9-38.7-19-67.8-22-89.8
	C629.4,1129.7,577,1106.5,535.4,1076.7L535.4,1076.7z M1101.7,1014.9c77.9-37.5,92.2,141,61.3,198.7c4.8,17.2,20.8,23.8,27.4,39.3
	c-43.4,77.9-91.6,150.5-136.2,227.2c32.7-20.8,80.3-3.6,119-19c14.3-5.4,24.4-38.1,35.1-64.2c29.7-71.4,60.7-161.8,74.4-229.6
	c3-15.5,11.9-49.4,9.5-63.1c-3.6-25-36.9-43.4-54.1-58.3c-31.5-28.6-51.2-52.9-84.5-79.7C1141,985.7,1112.4,998.8,1101.7,1014.9
	L1101.7,1014.9z M357.5,324.2c-36.9,41-29.1,117.2-25,171.9c67.2-42.2,155.9,3.6,155.3,75c32.1-0.6,11.9-39.9,6-65.4
	c-19-82.7,32.1-171.9,2.4-247.5C438.4,262.9,391.4,286.1,357.5,324.2L357.5,324.2z M622.8,86.9c-83.9,23.8-191.5,85.1-226,160.6
	c26.8-4.2,45.2-17.2,71.4-19c10.1-0.6,23.2,4.2,34.5,1.2c22.6-5.9,42.2-57.1,59.5-76.1c16.7-18.4,36.9-26.8,50.6-43.4
	c8.9-4.2,22-4.2,22.6-17.3C631.8,88.6,627.6,85.7,622.8,86.9L622.8,86.9z M1060.1,109.5c-87.4-49.4-235-86.3-327.8-39.9
	c-75,37.5-176.1,99.3-210.6,177.3c32.1,75.5-9.5,144.5-12.5,221.3c-1.2,41,19,76.2,20.8,120.8c-11.3,18.4-44.6,20.2-67.8,19
	c-7.7-39.3-21.4-83.3-61.9-88c-57.1-6.5-99.3,41-101.7,90.4c-3,58.3,44.6,154.7,112.4,148.1c26.2-2.4,32.7-28.6,61.3-28.6
	c15.5,30.9-23.8,40.4-28,62.5c-1.2,6,3,28,5.9,38.7c12.5,50.6,39.9,116.6,66.6,155.3c34.5,49.4,101.7,56.5,174.3,61.3
	c13.1-28,60.7-25.6,91.6-18.4c-37.5-14.9-72-50.6-100.5-82.1c-32.7-36.3-66-75-67.8-122.5c62.5,86.3,113.6,161.8,226.6,199.9
	c85.7,28.5,185.6-13.1,251.6-59.5c27.4-19,43.4-50,63.1-77.3c72.6-104.7,106.5-253.4,99.3-398c-3-59.5-3-119-23.2-158.8
	c-20.8-41.6-91.6-79.7-133.2-41.6c-7.7-41,34.5-66,83.9-51.2C1147.5,192.1,1110.6,138,1060.1,109.5L1060.1,109.5z M1223.1,1454.5
	c68.4-33.9,195.7-91,237.9,0c16.1,33.9,34.5,90.4,42.2,125.5c11.3,48.8-12.5,152.3-63.1,168.3c-44.6,14.3-96.4,13.7-149.9,3
	c-6.5-5.4-13.1-14.3-18.4-23.8c-38.1-1.2-74.4,1.8-104.1,17.9c3,28.5-16.1,32.7-34.5,38.7c-13.1,52.9,26.8,121.9,17.3,169.5
	c-6.5,34.5-48.8,39.9-79.7,45.8c-1.2,19,1.2,35.1,3.6,51.2c-7.1,26.2-38.7,41-69,44.6c-99.3,11.9-249.8,17.2-345-17.3
	c-26.8-65.4-47.6-144.6-69.6-218.9c-92.8,10.1-168.3-39.9-239.1-73.2c-24.4-11.3-58.3-17.8-67.8-37.5c-8.9-19-5.4-55.3-7.7-89.2
	c-5.4-87.4-10.7-171.9-33.3-261.2c-10.1-40.4-28.6-75.5-41-114.2c-11.9-35.7-32.1-80.3-37.5-116c-7.7-52.9,42.2-55.9,73.8-79.1
	c49.4-35.7,88-55.3,141.6-87.4c16.1-9.5,63.7-33.3,69-44.6c10.7-22-18.4-52.9-26.2-70.2c-12.5-27.4-19-50.6-20.8-77.3
	c-44.6-7.1-79.1-33.9-99.3-63.6c-33.9-50-57.7-142.2-28-211.8c2.4-5.4,13.7-16.7,15.5-25c3.6-16.7-6.5-38.7-7.1-56.5
	c-3-91,15.5-169.5,76.7-196.9c25-99.3,114.2-132.1,198.1-181.4c31.5-18.4,66-30.3,101.7-43.4c127.9-47,324.8-38.1,431.3,42.2
	c45.2,33.9,117.2,105.9,142.8,158.2c68.4,137.4,63.1,367.6,15.5,535.4c-6.5,22.6-15.5,55.3-28.6,82.7c-8.9,19-36.9,56.5-33.9,73.2
	c3.6,17.3,64.3,63.1,77.3,75.6c23.2,22.6,67.8,52.4,71.4,80.9c4.2,30.3-13.1,72-22,101.1C1284.3,1277.2,1255.8,1367,1223.1,1454.5
	L1223.1,1454.5z"/>
<path class="st7" d="M768,778.7c3.6-4.8,23.8-12.5,52.3,1.2c0,0-33.9,5.4-30.9,61.9l-14.3-3C775.7,839.4,760.8,788.2,768,778.7"/>
<path class="st12" d="M1014.3,1261.7c0,8.3-7.1,15.5-15.5,15.5c-8.3,0-15.5-7.1-15.5-15.5c0-8.3,7.1-15.5,15.5-15.5
	C1007.7,1246.3,1014.3,1253.4,1014.3,1261.7 M1029.7,1333.7c0,8.3-7.1,15.5-15.5,15.5c-8.3,0-15.5-7.1-15.5-15.5s7.1-15.5,15.5-15.5
	C1023.2,1318.2,1029.7,1324.8,1029.7,1333.7"/>
</svg>
